<mxfile host="app.diagrams.net" agent="Mozilla/5.0 (Macintosh; Intel Mac OS X 10_15_7) AppleWebKit/537.36 (KHTML, like Gecko) Chrome/131.0.0.0 Safari/537.36" version="24.9.0">
  <diagram name="페이지-1" id="GtJppz8hLXg0f8TWYYAI">
    <mxGraphModel dx="1464" dy="735" grid="1" gridSize="10" guides="1" tooltips="1" connect="1" arrows="1" fold="1" page="1" pageScale="1" pageWidth="827" pageHeight="1169" math="0" shadow="0">
      <root>
        <mxCell id="0" />
        <mxCell id="1" parent="0" />
        <mxCell id="dS3uTGzaUhHZpK9SUm46-1" value="User" style="shape=umlActor;verticalLabelPosition=bottom;verticalAlign=top;html=1;outlineConnect=0;" parent="1" vertex="1">
          <mxGeometry x="130" y="585" width="30" height="60" as="geometry" />
        </mxCell>
        <mxCell id="dS3uTGzaUhHZpK9SUm46-5" value="Scene Scape" style="swimlane;whiteSpace=wrap;html=1;" parent="1" vertex="1">
          <mxGeometry x="260" y="110" width="680" height="840" as="geometry" />
        </mxCell>
        <mxCell id="dS3uTGzaUhHZpK9SUm46-6" value="로그인" style="ellipse;whiteSpace=wrap;html=1;" parent="dS3uTGzaUhHZpK9SUm46-5" vertex="1">
          <mxGeometry x="70" y="367.5" width="120" height="80" as="geometry" />
        </mxCell>
        <mxCell id="dS3uTGzaUhHZpK9SUm46-7" value="회원정보 수정" style="ellipse;whiteSpace=wrap;html=1;" parent="dS3uTGzaUhHZpK9SUm46-5" vertex="1">
          <mxGeometry x="300" y="367.5" width="120" height="80" as="geometry" />
        </mxCell>
        <mxCell id="dS3uTGzaUhHZpK9SUm46-8" value="게시글 관리" style="ellipse;whiteSpace=wrap;html=1;" parent="dS3uTGzaUhHZpK9SUm46-5" vertex="1">
          <mxGeometry x="70" y="150" width="120" height="80" as="geometry" />
        </mxCell>
        <mxCell id="dS3uTGzaUhHZpK9SUm46-9" value="여행 일정 관리" style="ellipse;whiteSpace=wrap;html=1;" parent="dS3uTGzaUhHZpK9SUm46-5" vertex="1">
          <mxGeometry x="300" y="537.5" width="120" height="80" as="geometry" />
        </mxCell>
        <mxCell id="dS3uTGzaUhHZpK9SUm46-17" value="&amp;lt;&amp;lt;include&amp;gt;&amp;gt;" style="html=1;verticalAlign=bottom;labelBackgroundColor=none;endArrow=open;endFill=0;dashed=1;rounded=0;entryX=0.5;entryY=0;entryDx=0;entryDy=0;" parent="dS3uTGzaUhHZpK9SUm46-5" source="dS3uTGzaUhHZpK9SUm46-8" target="dS3uTGzaUhHZpK9SUm46-6" edge="1">
          <mxGeometry width="160" relative="1" as="geometry">
            <mxPoint x="40" y="457.5" as="sourcePoint" />
            <mxPoint x="200" y="457.5" as="targetPoint" />
          </mxGeometry>
        </mxCell>
        <mxCell id="dS3uTGzaUhHZpK9SUm46-18" value="&amp;lt;&amp;lt;include&amp;gt;&amp;gt;" style="html=1;verticalAlign=bottom;labelBackgroundColor=none;endArrow=open;endFill=0;dashed=1;rounded=0;entryX=0.5;entryY=1;entryDx=0;entryDy=0;" parent="dS3uTGzaUhHZpK9SUm46-5" source="dS3uTGzaUhHZpK9SUm46-9" target="dS3uTGzaUhHZpK9SUm46-6" edge="1">
          <mxGeometry width="160" relative="1" as="geometry">
            <mxPoint x="40" y="457.5" as="sourcePoint" />
            <mxPoint x="200" y="457.5" as="targetPoint" />
          </mxGeometry>
        </mxCell>
        <mxCell id="dS3uTGzaUhHZpK9SUm46-19" value="&amp;lt;&amp;lt;extend&amp;gt;&amp;gt;" style="html=1;verticalAlign=bottom;labelBackgroundColor=none;endArrow=open;endFill=0;dashed=1;rounded=0;entryX=1;entryY=0.5;entryDx=0;entryDy=0;exitX=0;exitY=0.5;exitDx=0;exitDy=0;" parent="dS3uTGzaUhHZpK9SUm46-5" source="dS3uTGzaUhHZpK9SUm46-7" target="dS3uTGzaUhHZpK9SUm46-6" edge="1">
          <mxGeometry width="160" relative="1" as="geometry">
            <mxPoint x="140" y="457.5" as="sourcePoint" />
            <mxPoint x="300" y="457.5" as="targetPoint" />
          </mxGeometry>
        </mxCell>
        <mxCell id="dS3uTGzaUhHZpK9SUm46-23" value="게시글 작성" style="ellipse;whiteSpace=wrap;html=1;" parent="dS3uTGzaUhHZpK9SUm46-5" vertex="1">
          <mxGeometry x="300" y="60" width="120" height="80" as="geometry" />
        </mxCell>
        <mxCell id="dS3uTGzaUhHZpK9SUm46-21" value="" style="endArrow=block;html=1;rounded=0;align=center;verticalAlign=bottom;endFill=0;labelBackgroundColor=none;endSize=8;entryX=1;entryY=0.5;entryDx=0;entryDy=0;" parent="dS3uTGzaUhHZpK9SUm46-5" target="dS3uTGzaUhHZpK9SUm46-8" edge="1">
          <mxGeometry relative="1" as="geometry">
            <mxPoint x="280" y="190" as="sourcePoint" />
            <mxPoint x="400" y="370" as="targetPoint" />
          </mxGeometry>
        </mxCell>
        <mxCell id="dS3uTGzaUhHZpK9SUm46-22" value="" style="resizable=0;html=1;align=center;verticalAlign=top;labelBackgroundColor=none;" parent="dS3uTGzaUhHZpK9SUm46-21" connectable="0" vertex="1">
          <mxGeometry relative="1" as="geometry" />
        </mxCell>
        <mxCell id="dS3uTGzaUhHZpK9SUm46-24" value="게시글 수정" style="ellipse;whiteSpace=wrap;html=1;" parent="dS3uTGzaUhHZpK9SUm46-5" vertex="1">
          <mxGeometry x="300" y="150" width="120" height="80" as="geometry" />
        </mxCell>
        <mxCell id="dS3uTGzaUhHZpK9SUm46-25" value="게시글 삭제" style="ellipse;whiteSpace=wrap;html=1;" parent="dS3uTGzaUhHZpK9SUm46-5" vertex="1">
          <mxGeometry x="300" y="240" width="120" height="80" as="geometry" />
        </mxCell>
        <mxCell id="dS3uTGzaUhHZpK9SUm46-33" value="" style="endArrow=none;html=1;rounded=0;" parent="dS3uTGzaUhHZpK9SUm46-5" edge="1">
          <mxGeometry width="50" height="50" relative="1" as="geometry">
            <mxPoint x="280" y="190" as="sourcePoint" />
            <mxPoint x="280" y="100" as="targetPoint" />
          </mxGeometry>
        </mxCell>
        <mxCell id="dS3uTGzaUhHZpK9SUm46-38" value="여행 일정 수정" style="ellipse;whiteSpace=wrap;html=1;" parent="dS3uTGzaUhHZpK9SUm46-5" vertex="1">
          <mxGeometry x="530" y="537.5" width="120" height="80" as="geometry" />
        </mxCell>
        <mxCell id="dS3uTGzaUhHZpK9SUm46-39" value="여행 일정 추가" style="ellipse;whiteSpace=wrap;html=1;" parent="dS3uTGzaUhHZpK9SUm46-5" vertex="1">
          <mxGeometry x="530" y="447.5" width="120" height="80" as="geometry" />
        </mxCell>
        <mxCell id="dS3uTGzaUhHZpK9SUm46-47" value="" style="endArrow=block;html=1;rounded=0;align=center;verticalAlign=bottom;endFill=0;labelBackgroundColor=none;endSize=8;entryX=1;entryY=0.5;entryDx=0;entryDy=0;" parent="dS3uTGzaUhHZpK9SUm46-5" edge="1">
          <mxGeometry relative="1" as="geometry">
            <mxPoint x="510" y="576.94" as="sourcePoint" />
            <mxPoint x="420" y="576.94" as="targetPoint" />
          </mxGeometry>
        </mxCell>
        <mxCell id="dS3uTGzaUhHZpK9SUm46-48" value="" style="resizable=0;html=1;align=center;verticalAlign=top;labelBackgroundColor=none;" parent="dS3uTGzaUhHZpK9SUm46-47" connectable="0" vertex="1">
          <mxGeometry relative="1" as="geometry" />
        </mxCell>
        <mxCell id="dS3uTGzaUhHZpK9SUm46-49" value="" style="endArrow=none;html=1;rounded=0;" parent="dS3uTGzaUhHZpK9SUm46-5" edge="1">
          <mxGeometry width="50" height="50" relative="1" as="geometry">
            <mxPoint x="510" y="576.94" as="sourcePoint" />
            <mxPoint x="510" y="486.94000000000005" as="targetPoint" />
          </mxGeometry>
        </mxCell>
        <mxCell id="dS3uTGzaUhHZpK9SUm46-50" value="" style="endArrow=none;html=1;rounded=0;" parent="dS3uTGzaUhHZpK9SUm46-5" edge="1">
          <mxGeometry width="50" height="50" relative="1" as="geometry">
            <mxPoint x="510" y="666.94" as="sourcePoint" />
            <mxPoint x="510" y="576.94" as="targetPoint" />
          </mxGeometry>
        </mxCell>
        <mxCell id="dS3uTGzaUhHZpK9SUm46-51" value="" style="endArrow=none;html=1;rounded=0;entryX=0;entryY=0.5;entryDx=0;entryDy=0;" parent="dS3uTGzaUhHZpK9SUm46-5" edge="1">
          <mxGeometry width="50" height="50" relative="1" as="geometry">
            <mxPoint x="510" y="666.94" as="sourcePoint" />
            <mxPoint x="530" y="666.94" as="targetPoint" />
          </mxGeometry>
        </mxCell>
        <mxCell id="dS3uTGzaUhHZpK9SUm46-52" value="" style="endArrow=none;html=1;rounded=0;entryX=0;entryY=0.5;entryDx=0;entryDy=0;" parent="dS3uTGzaUhHZpK9SUm46-5" edge="1">
          <mxGeometry width="50" height="50" relative="1" as="geometry">
            <mxPoint x="510" y="486.94000000000005" as="sourcePoint" />
            <mxPoint x="530" y="486.94000000000005" as="targetPoint" />
          </mxGeometry>
        </mxCell>
        <mxCell id="dS3uTGzaUhHZpK9SUm46-53" value="" style="endArrow=none;html=1;rounded=0;entryX=0;entryY=0.5;entryDx=0;entryDy=0;" parent="dS3uTGzaUhHZpK9SUm46-5" edge="1">
          <mxGeometry width="50" height="50" relative="1" as="geometry">
            <mxPoint x="510" y="576.94" as="sourcePoint" />
            <mxPoint x="530" y="576.94" as="targetPoint" />
          </mxGeometry>
        </mxCell>
        <mxCell id="dS3uTGzaUhHZpK9SUm46-55" value="여행 일정 삭제" style="ellipse;whiteSpace=wrap;html=1;" parent="dS3uTGzaUhHZpK9SUm46-5" vertex="1">
          <mxGeometry x="530" y="627.5" width="120" height="80" as="geometry" />
        </mxCell>
        <mxCell id="dS3uTGzaUhHZpK9SUm46-57" value="이미지 업로드" style="ellipse;whiteSpace=wrap;html=1;" parent="dS3uTGzaUhHZpK9SUm46-5" vertex="1">
          <mxGeometry x="500" y="60" width="120" height="80" as="geometry" />
        </mxCell>
        <mxCell id="dS3uTGzaUhHZpK9SUm46-61" value="임시 비밀번호 생성" style="ellipse;whiteSpace=wrap;html=1;" parent="dS3uTGzaUhHZpK9SUm46-5" vertex="1">
          <mxGeometry x="130" y="560" width="120" height="80" as="geometry" />
        </mxCell>
        <mxCell id="zwKWt7NqLhoNmHk3blDd-1" value="여행지 추천 받기" style="ellipse;whiteSpace=wrap;html=1;" vertex="1" parent="dS3uTGzaUhHZpK9SUm46-5">
          <mxGeometry x="90" y="720" width="120" height="80" as="geometry" />
        </mxCell>
        <mxCell id="dS3uTGzaUhHZpK9SUm46-31" value="" style="endArrow=none;html=1;rounded=0;" parent="1" edge="1">
          <mxGeometry width="50" height="50" relative="1" as="geometry">
            <mxPoint x="540" y="390" as="sourcePoint" />
            <mxPoint x="540" y="300" as="targetPoint" />
          </mxGeometry>
        </mxCell>
        <mxCell id="dS3uTGzaUhHZpK9SUm46-32" value="" style="endArrow=none;html=1;rounded=0;entryX=0;entryY=0.5;entryDx=0;entryDy=0;" parent="1" target="dS3uTGzaUhHZpK9SUm46-25" edge="1">
          <mxGeometry width="50" height="50" relative="1" as="geometry">
            <mxPoint x="540" y="390" as="sourcePoint" />
            <mxPoint x="620" y="460" as="targetPoint" />
          </mxGeometry>
        </mxCell>
        <mxCell id="dS3uTGzaUhHZpK9SUm46-36" value="" style="endArrow=none;html=1;rounded=0;entryX=0;entryY=0.5;entryDx=0;entryDy=0;" parent="1" target="dS3uTGzaUhHZpK9SUm46-23" edge="1">
          <mxGeometry width="50" height="50" relative="1" as="geometry">
            <mxPoint x="540" y="210" as="sourcePoint" />
            <mxPoint x="570" y="400" as="targetPoint" />
          </mxGeometry>
        </mxCell>
        <mxCell id="dS3uTGzaUhHZpK9SUm46-37" value="" style="endArrow=none;html=1;rounded=0;entryX=0;entryY=0.5;entryDx=0;entryDy=0;" parent="1" target="dS3uTGzaUhHZpK9SUm46-24" edge="1">
          <mxGeometry width="50" height="50" relative="1" as="geometry">
            <mxPoint x="540" y="300" as="sourcePoint" />
            <mxPoint x="620" y="460" as="targetPoint" />
          </mxGeometry>
        </mxCell>
        <mxCell id="dS3uTGzaUhHZpK9SUm46-56" value="&amp;lt;&amp;lt;extend&amp;gt;&amp;gt;" style="html=1;verticalAlign=bottom;labelBackgroundColor=none;endArrow=open;endFill=0;dashed=1;rounded=0;entryX=1;entryY=0.5;entryDx=0;entryDy=0;" parent="1" target="dS3uTGzaUhHZpK9SUm46-23" edge="1">
          <mxGeometry width="160" relative="1" as="geometry">
            <mxPoint x="760" y="210" as="sourcePoint" />
            <mxPoint x="790" y="500" as="targetPoint" />
          </mxGeometry>
        </mxCell>
        <mxCell id="dS3uTGzaUhHZpK9SUm46-59" value="" style="endArrow=none;html=1;rounded=0;entryX=0;entryY=0.656;entryDx=0;entryDy=0;entryPerimeter=0;exitX=0.5;exitY=0.5;exitDx=0;exitDy=0;exitPerimeter=0;" parent="1" source="dS3uTGzaUhHZpK9SUm46-1" target="dS3uTGzaUhHZpK9SUm46-6" edge="1">
          <mxGeometry width="50" height="50" relative="1" as="geometry">
            <mxPoint x="250" y="680" as="sourcePoint" />
            <mxPoint x="300" y="630" as="targetPoint" />
          </mxGeometry>
        </mxCell>
        <mxCell id="dS3uTGzaUhHZpK9SUm46-63" value="" style="endArrow=none;html=1;rounded=0;entryX=0.5;entryY=0.5;entryDx=0;entryDy=0;entryPerimeter=0;exitX=0;exitY=0.5;exitDx=0;exitDy=0;" parent="1" source="dS3uTGzaUhHZpK9SUm46-61" target="dS3uTGzaUhHZpK9SUm46-1" edge="1">
          <mxGeometry width="50" height="50" relative="1" as="geometry">
            <mxPoint x="640" y="710" as="sourcePoint" />
            <mxPoint x="690" y="660" as="targetPoint" />
          </mxGeometry>
        </mxCell>
        <mxCell id="zwKWt7NqLhoNmHk3blDd-2" value="" style="endArrow=none;html=1;rounded=0;entryX=0.5;entryY=0.5;entryDx=0;entryDy=0;entryPerimeter=0;exitX=0;exitY=0;exitDx=0;exitDy=0;" edge="1" parent="1" source="zwKWt7NqLhoNmHk3blDd-1" target="dS3uTGzaUhHZpK9SUm46-1">
          <mxGeometry width="50" height="50" relative="1" as="geometry">
            <mxPoint x="395" y="832.5" as="sourcePoint" />
            <mxPoint x="150" y="737.5" as="targetPoint" />
          </mxGeometry>
        </mxCell>
      </root>
    </mxGraphModel>
  </diagram>
</mxfile>
